<svg xmlns="http://www.w3.org/2000/svg" width="32" height="32" viewBox="0 0 32 32">
  <defs>
    <radialGradient id="meatG" cx="38%" cy="32%" r="65%">
      <stop offset="0%" stop-color="#e06858"/>
      <stop offset="100%" stop-color="#801828"/>
    </radialGradient>
    <linearGradient id="fatG" x1="0" y1="0" x2="0" y2="1">
      <stop offset="0%" stop-color="#f0e0c0"/>
      <stop offset="100%" stop-color="#c0a880"/>
    </linearGradient>
  </defs>
  <!-- Shadow -->
  <ellipse cx="16" cy="29" rx="11" ry="2" fill="black" opacity="0.15"/>
  <!-- Bone -->
  <line x1="22" y1="6" x2="28" y2="12" stroke="#e8dcc8" stroke-width="3.5" stroke-linecap="round"/>
  <circle cx="22" cy="6"  r="3" fill="#e8dcc8" stroke="#b0a090" stroke-width="0.9"/>
  <circle cx="28" cy="12" r="3" fill="#e8dcc8" stroke="#b0a090" stroke-width="0.9"/>
  <!-- Fat / marbling layer -->
  <path d="M5 14 Q5 6 12 5 Q20 4 24 10 Q28 16 25 22 Q22 28 14 27 Q6 26 5 20 Z"
        fill="url(#fatG)" stroke="#a08060" stroke-width="1"/>
  <!-- Meat body -->
  <path d="M6 16 Q6 9 12 8 Q19 7 23 12 Q27 17 24 22 Q21 27 14 26 Q7 25 6 20 Z"
        fill="url(#meatG)" stroke="#5a1018" stroke-width="1.2"/>
  <!-- Marbling streaks -->
  <path d="M10 14 Q14 12 18 15" stroke="#f0c0b0" stroke-width="1" fill="none" opacity="0.5"/>
  <path d="M11 19 Q15 17 19 20" stroke="#f0c0b0" stroke-width="1" fill="none" opacity="0.5"/>
  <!-- Highlight -->
  <ellipse cx="12" cy="12" rx="4" ry="3" fill="white" opacity="0.2"/>
</svg>
