<svg xmlns="http://www.w3.org/2000/svg" width="32" height="32" viewBox="0 0 32 32">
  <defs>
    <radialGradient id="slimeG" cx="38%" cy="32%" r="65%">
      <stop offset="0%" stop-color="#80e858"/>
      <stop offset="100%" stop-color="#2a7010"/>
    </radialGradient>
  </defs>
  <!-- Shadow -->
  <ellipse cx="16" cy="29" rx="10" ry="2.5" fill="black" opacity="0.16"/>
  <!-- Drip tail -->
  <path d="M19 24 Q22 28 20 30 Q18 31 17 28 Q16 25 19 24Z"
        fill="url(#slimeG)" stroke="#1e5808" stroke-width="0.9"/>
  <!-- Main blob body -->
  <path d="M6 20 Q4 12 8 8 Q12 3 16 3 Q20 3 24 8 Q28 12 26 20 Q24 26 16 27 Q8 26 6 20Z"
        fill="url(#slimeG)" stroke="#1e5808" stroke-width="1.3"/>
  <!-- Highlight -->
  <ellipse cx="12" cy="10" rx="4" ry="3" fill="white" opacity="0.28"/>
  <!-- Eyes -->
  <circle cx="12" cy="16" r="3"   fill="white" stroke="#1e5808" stroke-width="0.8"/>
  <circle cx="20" cy="15" r="3"   fill="white" stroke="#1e5808" stroke-width="0.8"/>
  <circle cx="13" cy="16.5" r="1.5" fill="#1e3808"/>
  <circle cx="21" cy="15.5" r="1.5" fill="#1e3808"/>
  <!-- Eye shine -->
  <circle cx="12.5" cy="15.8" r="0.7" fill="white" opacity="0.8"/>
  <circle cx="20.5" cy="14.8" r="0.7" fill="white" opacity="0.8"/>
</svg>
